<svg width="400" height="100" viewBox="0 0 171 46" fill="none" xmlns="http://www.w3.org/2000/svg">
<path d="M94.985 44.3403C106.903 44.3403 116.565 34.6788 116.565 22.7606C116.565 10.8424 106.903 1.18085 94.985 1.18085C83.0669 1.18085 73.4053 10.8424 73.4053 22.7606C73.4053 34.6788 83.0669 44.3403 94.985 44.3403Z" fill="#1683C6"/>
<path d="M12.6091 29.5793H10.5521V23.9987C10.5521 23.5034 10.4568 23.0273 10.2664 22.5702C10.0759 22.113 9.80925 21.7321 9.48546 21.3893C9.16167 21.0655 8.76169 20.7988 8.30458 20.6084C7.84746 20.4179 7.3713 20.3227 6.87609 20.3227C6.36183 20.3227 5.88567 20.4179 5.42855 20.6084C4.99048 20.7988 4.5905 21.0655 4.26671 21.3893C3.94292 21.7131 3.67626 22.113 3.4858 22.5702C3.29533 23.0273 3.2001 23.5034 3.2001 23.9987C3.2001 24.5129 3.29533 25.0081 3.4858 25.4462C3.67626 25.9033 3.94292 26.3033 4.26671 26.6271C4.5905 26.9699 4.99048 27.2366 5.42855 27.427C5.86662 27.6175 6.36183 27.7127 6.87609 27.7127C7.3713 27.7127 7.84746 27.6175 8.28553 27.4461C8.7236 27.2747 9.10453 27.008 9.44737 26.6842V29.1412C9.04739 29.3507 8.62837 29.5031 8.20934 29.5983C7.79032 29.6936 7.3332 29.7507 6.85704 29.7507C6.05708 29.7507 5.31427 29.5983 4.60955 29.2936C3.90482 28.9889 3.29533 28.5698 2.78108 28.0556C2.24777 27.5223 1.8478 26.9128 1.54305 26.2081C1.23831 25.5033 1.10498 24.7605 1.10498 23.9606C1.10498 23.1606 1.25735 22.4178 1.54305 21.7131C1.8478 21.0083 2.24777 20.4179 2.78108 19.8846C3.31438 19.3703 3.92387 18.9513 4.60955 18.6466C5.31427 18.3418 6.05708 18.1895 6.85704 18.1895C7.6189 18.1895 8.32362 18.3228 8.99025 18.6085C9.65688 18.8751 10.2473 19.2561 10.7616 19.7322C11.2758 20.2084 11.6949 20.7607 12.0187 21.4083C12.3424 22.0559 12.552 22.7416 12.6091 23.4653V29.5793Z" fill="#545554"/>
<path d="M27.0085 14.0373V23.9986C27.0085 24.7986 26.8561 25.5414 26.5514 26.2461C26.2467 26.9509 25.8276 27.5603 25.3134 28.0937C24.7991 28.627 24.1896 29.0269 23.4849 29.3317C22.7802 29.6364 22.0564 29.7888 21.2946 29.7888C20.4946 29.7888 19.7327 29.6364 19.028 29.3317C18.3233 29.0269 17.6948 28.6079 17.1805 28.0937C16.6472 27.5603 16.2472 26.9509 15.9425 26.2461C15.6377 25.5414 15.4854 24.7986 15.4854 23.9986C15.4854 23.1987 15.6377 22.4559 15.9425 21.7511C16.2472 21.0464 16.6662 20.456 17.1805 19.9227C17.7138 19.4084 18.3233 18.9894 19.028 18.6847C19.7327 18.3799 20.4946 18.2275 21.2946 18.2275C21.7517 18.2275 22.1897 18.2847 22.6278 18.399C23.0659 18.5132 23.4659 18.6656 23.8468 18.8751V21.3702C23.523 21.0274 23.1421 20.7607 22.6849 20.5703C22.2469 20.3798 21.7707 20.2846 21.2946 20.2846C20.7803 20.2846 20.2851 20.3798 19.847 20.5703C19.3899 20.7607 18.9899 21.0274 18.6661 21.3702C18.3233 21.7131 18.0566 22.113 17.8471 22.5511C17.6567 23.0082 17.5424 23.4844 17.5424 23.9796C17.5424 24.4939 17.6376 24.9891 17.8471 25.4271C18.0376 25.8843 18.3233 26.2652 18.6661 26.608C19.009 26.9318 19.4089 27.1985 19.847 27.408C20.3041 27.5984 20.7803 27.7127 21.2946 27.7127C21.7898 27.7127 22.2659 27.6175 22.723 27.408C23.1611 27.2175 23.5611 26.9509 23.8849 26.608C24.2087 26.2842 24.4753 25.8843 24.6658 25.4271C24.8563 24.97 24.9515 24.4939 24.9515 23.9796V14.0373H27.0085Z" fill="#545554"/>
<path d="M30.3986 18.4752H32.4556V27.9413V31.4649C32.4556 32.1125 32.3413 32.6077 32.1318 32.9505C31.9032 33.2934 31.6747 33.541 31.4271 33.7124C31.1223 33.8838 30.7985 33.9981 30.3986 34.0171H27.1797V32.0173H29.9795C30.189 32.0173 30.3224 31.922 30.3795 31.7316C30.4176 31.6173 30.4176 31.503 30.3986 31.4268V18.4752Z" fill="#545554"/>
<path d="M47.0261 29.5793H44.95V23.9987C44.95 23.5034 44.8548 23.0273 44.6643 22.5702C44.4739 22.113 44.2072 21.7321 43.8834 21.3893C43.5596 21.0655 43.1596 20.7988 42.7025 20.6084C42.2454 20.4179 41.7692 20.3227 41.274 20.3227C40.7598 20.3227 40.2836 20.4179 39.8265 20.6084C39.3884 20.7988 38.9885 21.0655 38.6647 21.3893C38.3409 21.7131 38.0742 22.113 37.8837 22.5702C37.6933 23.0273 37.5981 23.5034 37.5981 23.9987C37.5981 24.5129 37.6933 25.0081 37.8837 25.4462C38.0742 25.9033 38.3409 26.3033 38.6647 26.6271C38.9885 26.9699 39.3884 27.2366 39.8265 27.427C40.2646 27.6175 40.7598 27.7127 41.274 27.7127C41.7692 27.7127 42.2454 27.6175 42.6835 27.4461C43.1216 27.2747 43.5025 27.008 43.8453 26.6842V29.1412C43.4453 29.3507 43.0263 29.5031 42.6073 29.5983C42.1883 29.6936 41.7312 29.7507 41.255 29.7507C40.455 29.7507 39.7122 29.5983 39.0075 29.2936C38.3028 28.9889 37.6933 28.5698 37.179 28.0556C36.6457 27.5223 36.2457 26.9128 35.941 26.2081C35.6363 25.5033 35.5029 24.7605 35.5029 23.9606C35.5029 23.1606 35.6553 22.4178 35.941 21.7131C36.2457 21.0083 36.6457 20.4179 37.179 19.8846C37.7123 19.3703 38.3218 18.9513 39.0075 18.6466C39.7122 18.3418 40.455 18.1895 41.255 18.1895C42.0169 18.1895 42.7216 18.3228 43.3882 18.6085C44.0548 18.8751 44.6453 19.2561 45.1595 19.7322C45.6738 20.2084 46.0928 20.7607 46.4166 21.4083C46.7404 22.0559 46.9499 22.7416 47.0071 23.4653V29.5793H47.0261Z" fill="#545554"/>
<path d="M52.0355 18.8561C52.0355 18.9132 52.0355 18.9513 52.0546 18.9894C52.0927 19.0846 52.1498 19.1227 52.226 19.1037C52.3593 19.0466 52.4926 18.9894 52.645 18.9323C52.7783 18.8751 52.9307 18.837 53.0831 18.7799C53.3307 18.7037 53.6164 18.6275 53.9211 18.5704C54.2259 18.5133 54.5497 18.4752 54.8544 18.4752V20.5131C54.4925 20.5512 54.1687 20.5893 53.883 20.6274C53.5973 20.6846 53.3307 20.7417 53.1212 20.8179C52.8926 20.875 52.6641 20.9512 52.4355 21.0655C52.3974 21.0845 52.3403 21.1036 52.2831 21.1226C52.1879 21.1988 52.1498 21.3131 52.1498 21.4464V29.5603H50.0928V18.4752H52.0546V18.8561H52.0355Z" fill="#545554"/>
<path d="M68.4158 29.5793H66.3587V23.9987C66.3587 23.5034 66.2635 23.0273 66.073 22.5702C65.8826 22.113 65.6159 21.7321 65.2921 21.3893C64.9683 21.0655 64.5683 20.7988 64.1112 20.6084C63.6541 20.4179 63.1779 20.3227 62.6827 20.3227C62.1685 20.3227 61.6923 20.4179 61.2352 20.6084C60.7971 20.7988 60.3971 21.0655 60.0734 21.3893C59.7496 21.7131 59.4829 22.113 59.2924 22.5702C59.102 23.0273 59.0067 23.5034 59.0067 23.9987C59.0067 24.5129 59.102 25.0081 59.2924 25.4462C59.4829 25.9033 59.7496 26.3033 60.0734 26.6271C60.3971 26.9699 60.7971 27.2366 61.2352 27.427C61.6733 27.6175 62.1685 27.7127 62.6827 27.7127C63.1779 27.7127 63.6541 27.6175 64.0922 27.4461C64.5303 27.2747 64.9112 27.008 65.254 26.6842V29.1412C64.854 29.3507 64.435 29.5031 64.016 29.5983C63.597 29.6936 63.1399 29.7507 62.6637 29.7507C61.8637 29.7507 61.1209 29.5983 60.4162 29.2936C59.7115 28.9889 59.102 28.5698 58.5877 28.0556C58.0544 27.5223 57.6544 26.9128 57.3497 26.2081C57.045 25.5033 56.9116 24.7605 56.9116 23.9606C56.9116 23.1606 57.064 22.4178 57.3497 21.7131C57.6544 21.0083 58.0544 20.4179 58.5877 19.8846C59.121 19.3703 59.7305 18.9513 60.4162 18.6466C61.1209 18.3418 61.8637 18.1895 62.6637 18.1895C63.4255 18.1895 64.1303 18.3228 64.7969 18.6085C65.4635 18.8751 66.054 19.2561 66.5682 19.7322C67.0825 20.2084 67.5015 20.7607 67.8253 21.4083C68.1491 22.0559 68.3586 22.7416 68.4158 23.4653V29.5793Z" fill="#545554"/>
<path d="M77.8813 18.4751H79.9384V29.5793H77.8813V18.4751ZM86.9094 23.9796C86.9094 22.8559 86.6237 21.9607 86.0523 21.294C85.4809 20.6274 84.6429 20.3036 83.5382 20.3036C82.9668 20.3036 82.4906 20.3988 82.0907 20.5893C81.6907 20.7798 81.3478 21.0274 81.0431 21.3321V18.9513C81.1955 18.7989 81.3669 18.6847 81.5954 18.5894C81.8049 18.4942 82.0335 18.4371 82.243 18.3799C82.4716 18.3228 82.6811 18.2847 82.8716 18.2656C83.062 18.2466 83.2334 18.2275 83.3668 18.2275C84.2429 18.2275 85.0238 18.3609 85.7286 18.6275C86.4333 18.8942 87.0047 19.2751 87.4999 19.7703C87.9761 20.2655 88.3379 20.875 88.6046 21.5797C88.8522 22.2845 88.9855 23.0844 88.9855 23.9606H88.9665V29.5602H86.9285V23.9796H86.9094Z" fill="white"/>
<path d="M97.6139 18.2466C98.4138 18.2466 99.1566 18.399 99.8613 18.7037C100.566 19.0084 101.157 19.4275 101.671 19.9417C102.185 20.456 102.585 21.0655 102.89 21.7702C103.194 22.4749 103.328 23.2177 103.328 24.0177C103.328 24.1891 103.328 24.3415 103.309 24.4367C103.29 24.5319 103.271 24.6653 103.252 24.8367H93.9379C94.1093 25.77 94.5093 26.5318 95.1378 27.1032C95.7663 27.6746 96.6044 27.9603 97.6329 27.9603C98.3757 27.9603 98.9852 27.808 99.4804 27.5223C99.9756 27.2366 100.376 26.8747 100.718 26.4366H102.852C102.375 27.427 101.671 28.227 100.757 28.8555C99.8232 29.4841 98.7947 29.7888 97.6329 29.7888C96.8329 29.7888 96.0901 29.6364 95.3854 29.3317C94.6807 29.0269 94.0903 28.6079 93.557 28.0937C93.0427 27.5603 92.6237 26.9509 92.338 26.2461C92.0332 25.5414 91.8999 24.7986 91.8999 23.9986C91.8999 23.1987 92.0523 22.4559 92.338 21.7511C92.6427 21.0464 93.0427 20.4369 93.557 19.9227C94.0712 19.4084 94.6807 18.9894 95.3854 18.6847C96.0711 18.399 96.8139 18.2466 97.6139 18.2466ZM101.347 23.0273C101.271 22.6463 101.137 22.2654 100.909 21.9226C100.699 21.5607 100.433 21.2559 100.09 20.9893C99.7661 20.7226 99.3852 20.5131 98.9662 20.3417C98.5471 20.1703 98.09 20.0941 97.5948 20.0941C97.0996 20.0941 96.6234 20.1703 96.2235 20.3227C95.8044 20.475 95.4426 20.6845 95.1188 20.9512C94.795 21.2178 94.5283 21.5226 94.3379 21.8845C94.1283 22.2464 93.976 22.6082 93.8998 23.0082H101.347V23.0273Z" fill="white"/>
<path d="M111.918 27.5413V29.5793H108.623C108.242 29.5602 107.899 29.446 107.633 29.2555C107.385 29.0841 107.156 28.8365 106.947 28.4936C106.737 28.1508 106.642 27.6365 106.642 26.9699V23.4844V14.0373H108.642V18.4751H111.194V20.5131H108.642V26.9318C108.623 27.027 108.642 27.1413 108.68 27.2366C108.718 27.3127 108.756 27.3699 108.832 27.427C108.89 27.4842 109.004 27.5223 109.137 27.5223H111.918V27.5413Z" fill="white"/>
<path d="M122.203 29.5793H120.089V27.4651H122.203V29.5793Z" fill="#545554"/>
<path d="M128.584 27.827C129.25 27.827 129.86 27.6746 130.393 27.3889C130.926 27.1032 131.383 26.7033 131.745 26.208H133.974C133.745 26.7414 133.46 27.2366 133.117 27.6746C132.755 28.1127 132.355 28.4936 131.879 28.7984C131.402 29.1031 130.907 29.3507 130.355 29.5221C129.803 29.6936 129.212 29.7888 128.603 29.7888C127.803 29.7888 127.06 29.6364 126.355 29.3507C125.65 29.046 125.041 28.646 124.527 28.1127C123.993 27.5794 123.593 26.9699 123.289 26.2842C122.984 25.5795 122.851 24.8367 122.851 24.0367C122.851 23.2177 123.003 22.4559 123.289 21.7512C123.593 21.0464 123.993 20.4369 124.527 19.9227C125.06 19.4084 125.669 18.9894 126.355 18.6847C127.06 18.3799 127.803 18.2275 128.603 18.2275C129.212 18.2275 129.784 18.3228 130.355 18.4942C130.907 18.6656 131.422 18.9132 131.879 19.237C132.336 19.5608 132.755 19.9417 133.117 20.3798C133.479 20.8179 133.764 21.3131 133.974 21.8464H131.745C131.402 21.3512 130.964 20.9512 130.412 20.6465C129.86 20.3417 129.25 20.2084 128.584 20.2084C128.05 20.2084 127.555 20.3036 127.098 20.5131C126.641 20.7036 126.241 20.9893 125.898 21.3321C125.555 21.675 125.289 22.0749 125.079 22.5511C124.889 23.0082 124.774 23.5225 124.774 24.0558C124.774 24.5891 124.87 25.0843 125.079 25.5414C125.27 25.9985 125.555 26.3985 125.898 26.7414C126.241 27.0842 126.641 27.3508 127.098 27.5413C127.555 27.7318 128.05 27.827 128.584 27.827Z" fill="#545554"/>
<path d="M142.03 18.2466C142.83 18.2466 143.592 18.399 144.297 18.7037C145.002 19.0084 145.63 19.4275 146.144 19.9417C146.659 20.456 147.078 21.0655 147.382 21.7702C147.687 22.4749 147.84 23.2368 147.84 24.0558C147.84 24.8557 147.687 25.5986 147.382 26.3033C147.078 27.008 146.659 27.6175 146.144 28.1317C145.63 28.665 145.021 29.065 144.297 29.3698C143.592 29.6745 142.83 29.8078 142.03 29.8078C141.23 29.8078 140.488 29.6555 139.783 29.3698C139.078 29.065 138.469 28.665 137.954 28.1317C137.421 27.5984 137.021 26.989 136.716 26.3033C136.412 25.5986 136.278 24.8557 136.278 24.0558C136.278 23.2368 136.431 22.4749 136.716 21.7702C137.021 21.0655 137.421 20.456 137.954 19.9417C138.488 19.4275 139.097 19.0084 139.783 18.7037C140.488 18.399 141.23 18.2466 142.03 18.2466ZM142.03 27.827C142.564 27.827 143.059 27.7318 143.535 27.5413C143.992 27.3508 144.411 27.0842 144.754 26.7413C145.097 26.3985 145.364 25.9985 145.573 25.5414C145.764 25.0843 145.878 24.5891 145.878 24.0558C145.878 23.5225 145.783 23.0273 145.573 22.5511C145.383 22.094 145.097 21.675 144.754 21.3321C144.411 20.9893 144.011 20.7226 143.535 20.5131C143.078 20.3227 142.564 20.2084 142.03 20.2084C141.497 20.2084 141.002 20.3036 140.545 20.5131C140.088 20.7036 139.688 20.9893 139.345 21.3321C139.002 21.675 138.735 22.0749 138.526 22.5511C138.335 23.0082 138.221 23.5225 138.221 24.0558C138.221 24.5891 138.316 25.0843 138.526 25.5414C138.716 25.9985 139.002 26.3985 139.345 26.7413C139.688 27.0842 140.088 27.3508 140.545 27.5413C141.002 27.7318 141.497 27.827 142.03 27.827Z" fill="#545554"/>
<path d="M150.773 18.4751H152.83V29.5793H150.773V18.4751ZM157.458 22.913C157.458 22.6273 157.439 22.3416 157.42 22.0368C157.382 21.7321 157.306 21.4464 157.173 21.1988C157.039 20.9512 156.83 20.7417 156.544 20.5703C156.258 20.3988 155.877 20.3226 155.363 20.3226C155.325 20.3226 155.173 20.3227 154.849 20.3417C154.544 20.3607 154.258 20.4179 154.011 20.5131V18.6275C154.354 18.4751 154.697 18.3799 155.02 18.3418C155.363 18.3037 155.611 18.2847 155.763 18.2847C156.392 18.2847 156.944 18.418 157.382 18.6656C157.82 18.9323 158.201 19.2751 158.525 19.7132C158.868 19.1989 159.363 18.818 160.011 18.6085C160.658 18.3799 161.306 18.2847 161.972 18.2847C162.544 18.2847 163.096 18.3609 163.629 18.5132C164.163 18.6656 164.62 18.9323 165.02 19.3322C165.42 19.7132 165.744 20.2274 165.991 20.856C166.239 21.4845 166.353 22.2844 166.353 23.2368V29.5412H164.296V22.8749C164.296 22.5892 164.258 22.3035 164.201 21.9987C164.125 21.694 164.01 21.4083 163.839 21.1607C163.667 20.9131 163.42 20.7036 163.096 20.5322C162.772 20.3607 162.372 20.2846 161.858 20.2846C161.363 20.2846 160.982 20.3607 160.677 20.5322C160.372 20.7036 160.125 20.894 159.953 21.1417C159.782 21.3893 159.649 21.6559 159.592 21.9797C159.534 22.2844 159.496 22.5892 159.496 22.8749V29.5412H157.458V22.913Z" fill="#545554"/>
</svg>
